<?xml version="1.0" encoding="iso-8859-1"?>
<!-- Generator: Adobe Illustrator 19.0.0, SVG Export Plug-In . SVG Version: 6.00 Build 0)  -->
<svg version="1.1" id="Layer_1" xmlns="http://www.w3.org/2000/svg" xmlns:xlink="http://www.w3.org/1999/xlink" x="0px" y="0px"
	 viewBox="0 0 512.001 512.001" style="enable-background:new 0 0 512.001 512.001;" xml:space="preserve">
<path style="fill:#3A5D74;" d="M256.008,100.66c-0.503,0-1.014-0.046-1.526-0.141c-4.493-0.838-7.457-5.159-6.62-9.653
	c0.397-2.132,10.244-52.372,54.769-66.775c4.349-1.407,9.015,0.978,10.421,5.326c1.407,4.349-0.978,9.014-5.326,10.422
	c-35.257,11.405-43.512,53.634-43.591,54.06C263.393,97.879,259.916,100.66,256.008,100.66z"/>
<path style="fill:#59C384;" d="M443.99,288.219c-10.434-6.493-24.157-3.294-30.649,7.142c-6.488,10.434-3.292,24.156,7.145,30.646
	c22.64,14.084,36.156,38.385,36.156,65.005c0,42.173-34.309,76.485-76.483,76.485h-16.752V259.649v-26.482v-33.378
	c0-59.317-48.085-107.407-107.407-107.407c-59.325,0-107.408,48.09-107.408,107.407v267.708h-16.75
	c-42.174,0-76.485-34.311-76.485-76.485c0-26.621,13.516-50.922,36.158-65.005c10.436-6.49,13.631-20.212,7.143-30.646
	c-6.492-10.436-20.212-13.634-30.649-7.142c-35.788,22.261-57.154,60.69-57.154,102.794c0,66.712,54.275,120.988,120.987,120.988
	h38.111h16.283h139.527h16.282h38.113c66.712,0,120.988-54.275,120.988-120.988C501.145,348.908,479.78,310.48,443.99,288.219z"/>
<circle style="fill:#FFD960;" cx="256.005" cy="209.847" r="56.026"/>
<path style="fill:#3A5D74;" d="M298.468,323.328c-1.611-2.592-4.446-4.169-7.499-4.169h-69.938c-3.053,0-5.888,1.577-7.499,4.17
	c-1.611,2.593-1.769,5.833-0.415,8.57c8.779,17.764,25.211,28.798,42.882,28.798c17.673,0,34.104-11.036,42.883-28.798
	C300.234,329.162,300.078,325.921,298.468,323.328z"/>
<circle style="fill:#59C384;" cx="331.085" cy="25.903" r="25.901"/>
<g>
	<path style="opacity:0.1;fill:#231F20;enable-background:new    ;" d="M255.999,92.381c-59.325,0-107.408,48.09-107.408,107.407
		v267.695c0.18,0.001,0.356,0.013,0.535,0.013h3.337c5.095-0.47,13.41-3.151,13.41-15.656V199.789
		c0-56.408,43.483-102.659,98.767-107.061C261.79,92.502,258.908,92.381,255.999,92.381z"/>
	<path style="opacity:0.1;fill:#231F20;enable-background:new    ;" d="M217.257,209.846c0-28.003,20.546-51.205,47.384-55.361
		c-2.817-0.436-5.703-0.664-8.641-0.664c-30.942,0-56.026,25.083-56.026,56.025c0,30.943,25.084,56.028,56.026,56.028
		c2.939,0,5.824-0.228,8.641-0.665C237.802,261.052,217.257,237.85,217.257,209.846z"/>
	<path style="opacity:0.1;fill:#231F20;enable-background:new    ;" d="M230.399,331.897c-1.352-2.736-1.195-5.976,0.416-8.57
		c1.61-2.593,4.446-4.17,7.498-4.17h-17.283c-3.053,0-5.888,1.577-7.499,4.17c-1.611,2.593-1.769,5.833-0.415,8.57
		c8.779,17.764,25.211,28.798,42.882,28.798c2.924,0,5.815-0.309,8.642-0.894C250.383,356.853,237.727,346.721,230.399,331.897z"/>
	<path style="opacity:0.1;fill:#231F20;enable-background:new    ;" d="M322.463,25.903c0-11.274,7.203-20.861,17.258-24.42
		C337.016,0.526,334.109,0,331.077,0c-14.302,0-25.898,11.597-25.898,25.903c0,14.303,11.596,25.902,25.898,25.902
		c3.031,0,5.94-0.526,8.643-1.483C329.666,46.763,322.463,37.176,322.463,25.903z"/>
</g>
<circle style="fill:#3A5D74;" cx="256.005" cy="209.847" r="15.814"/>
<g>
</g>
<g>
</g>
<g>
</g>
<g>
</g>
<g>
</g>
<g>
</g>
<g>
</g>
<g>
</g>
<g>
</g>
<g>
</g>
<g>
</g>
<g>
</g>
<g>
</g>
<g>
</g>
<g>
</g>
</svg>
