<?xml version="1.0" encoding="iso-8859-1"?>
<!-- Generator: Adobe Illustrator 19.0.0, SVG Export Plug-In . SVG Version: 6.00 Build 0)  -->
<svg version="1.1" id="Capa_1" xmlns="http://www.w3.org/2000/svg" xmlns:xlink="http://www.w3.org/1999/xlink" x="0px" y="0px"
	 viewBox="0 0 57 57" style="enable-background:new 0 0 57 57;" xml:space="preserve">
<path style="fill:#7F5B53;" d="M30.464,57h-3.928c-1.125,0-2.036-0.912-2.036-2.036V2.036C24.5,0.912,25.412,0,26.536,0h3.928
	C31.588,0,32.5,0.912,32.5,2.036v52.928C32.5,56.088,31.588,57,30.464,57z"/>
<g>
	<path style="fill:#E4C05C;" d="M32.5,4.271v7.081c9.129,1.622,16,8.682,16,17.149s-6.871,15.527-16,17.149v7.081
		c12.997-1.759,23-11.953,23-24.229S45.497,6.03,32.5,4.271z"/>
	<path style="fill:#E4C05C;" d="M1.5,28.5c0,12.276,10.003,22.47,23,24.229v-7.081c-9.129-1.622-16-8.682-16-17.149
		s6.871-15.527,16-17.149V4.271C11.503,6.03,1.5,16.224,1.5,28.5z"/>
</g>
<path style="fill:#B19046;" d="M9.514,4.088c4.405,0.313,5.051,2.321,5.067,3.431c1.124-0.616,2.302-1.157,3.524-1.622
	C15.714-0.94,8.847,0.051,8.847,0.051C7.784,0.207,7.378,0.809,7.285,1.5C7.109,2.814,8.192,3.994,9.514,4.088z"/>
<path style="fill:#B19046;" d="M42.418,7.519c0.016-1.11,0.662-3.118,5.067-3.431c1.323-0.094,2.406-1.274,2.229-2.588
	c-0.093-0.691-0.499-1.292-1.562-1.449c0,0-6.867-0.991-9.258,5.846C40.117,6.362,41.295,6.903,42.418,7.519z"/>
<path style="fill:#B19046;" d="M47.486,52.169c-3.588-0.255-4.678-1.635-4.97-2.74c-1.072,0.593-2.194,1.118-3.356,1.573
	c2.589,6.111,8.994,5.204,8.994,5.204c1.063-0.156,1.469-0.758,1.562-1.449C49.891,53.443,48.808,52.263,47.486,52.169z"/>
<path style="fill:#B19046;" d="M14.485,49.43c-0.292,1.104-1.382,2.484-4.97,2.74c-1.323,0.094-2.406,1.274-2.229,2.588
	c0.093,0.691,0.499,1.292,1.562,1.449c0,0,6.405,0.907,8.994-5.204C16.678,50.547,15.556,50.023,14.485,49.43z"/>
<g>
</g>
<g>
</g>
<g>
</g>
<g>
</g>
<g>
</g>
<g>
</g>
<g>
</g>
<g>
</g>
<g>
</g>
<g>
</g>
<g>
</g>
<g>
</g>
<g>
</g>
<g>
</g>
<g>
</g>
</svg>
