<?xml version="1.0" encoding="iso-8859-1"?>
<!-- Generator: Adobe Illustrator 19.0.0, SVG Export Plug-In . SVG Version: 6.00 Build 0)  -->
<svg version="1.1" id="Capa_1" xmlns="http://www.w3.org/2000/svg" xmlns:xlink="http://www.w3.org/1999/xlink" x="0px" y="0px"
	 viewBox="0 0 59.001 59.001" style="enable-background:new 0 0 59.001 59.001;" xml:space="preserve">
<g>
	<path d="M48.556,52.171c-1.372-0.098-3.006-0.429-3.739-1.365C52.482,46.195,57.5,38.264,57.5,29.5
		c0-8.881-5.153-16.908-12.992-21.491c0.456-1.439,2.67-1.826,4.049-1.924c0.948-0.067,1.838-0.532,2.441-1.273
		c0.574-0.705,0.825-1.573,0.708-2.446c-0.17-1.265-1.047-2.105-2.41-2.305c-0.072-0.01-7.041-0.914-9.957,5.578
		c-1.551-0.535-3.168-0.947-4.839-1.223v-1.38C34.5,1.362,33.139,0,31.465,0h-3.928C25.862,0,24.5,1.362,24.5,3.036v1.379
		c-1.672,0.276-3.288,0.688-4.839,1.223c-2.916-6.491-9.883-5.587-9.96-5.577c-1.36,0.2-2.237,1.04-2.407,2.305
		C7.177,3.239,7.429,4.107,8.002,4.812c0.604,0.742,1.494,1.206,2.441,1.273c1.378,0.098,3.593,0.485,4.049,1.924
		C6.653,12.592,1.5,20.619,1.5,29.5c0,8.764,5.018,16.695,12.683,21.307c-0.733,0.936-2.367,1.267-3.739,1.365
		c-0.948,0.067-1.838,0.532-2.441,1.273c-0.574,0.705-0.825,1.573-0.708,2.446c0.17,1.265,1.047,2.105,2.413,2.306
		c0.324,0.046,0.696,0.073,1.104,0.073c2.533,0,6.421-1.041,8.539-5.013c1.645,0.588,3.368,1.034,5.151,1.329v1.379
		c0,1.674,1.362,3.036,3.036,3.036h3.928c1.674,0,3.036-1.362,3.036-3.036v-1.379c1.783-0.295,3.507-0.74,5.151-1.329
		c2.117,3.971,6.004,5.012,8.54,5.012c0.409,0,0.782-0.027,1.107-0.073c1.36-0.2,2.237-1.04,2.407-2.305
		c0.117-0.872-0.135-1.741-0.708-2.445C50.395,52.703,49.505,52.239,48.556,52.171z M41.197,6.341
		c2.325-4.993,7.583-4.333,7.811-4.301c0.601,0.088,0.679,0.321,0.716,0.592c0.043,0.319-0.056,0.645-0.277,0.917
		c-0.256,0.315-0.633,0.512-1.032,0.541c-3.696,0.263-5.138,1.692-5.682,2.947c-0.169-0.083-0.347-0.155-0.518-0.235
		c-0.18-0.084-0.361-0.166-0.543-0.247C41.513,6.486,41.359,6.409,41.197,6.341z M34.5,13.579c8.181,1.934,14,8.469,14,15.921
		s-5.819,13.987-14,15.921V13.579z M24.5,45.421c-8.181-1.934-14-8.469-14-15.921s5.819-13.987,14-15.921V45.421z M16.268,7.038
		c-0.544-1.255-1.986-2.685-5.682-2.947c-0.4-0.029-0.776-0.226-1.032-0.541c-0.222-0.272-0.32-0.598-0.277-0.917
		C9.314,2.361,9.392,2.129,9.99,2.041c0.236-0.033,5.482-0.726,7.814,4.301c-0.158,0.066-0.309,0.142-0.466,0.211
		c-0.185,0.082-0.371,0.165-0.554,0.251C16.614,6.883,16.437,6.955,16.268,7.038z M17.475,52.52
		c-2.449,4.317-7.273,3.724-7.481,3.697c-0.601-0.088-0.679-0.321-0.716-0.592c-0.043-0.319,0.056-0.645,0.277-0.917
		c0.256-0.315,0.633-0.512,1.032-0.541c3.108-0.221,4.634-1.257,5.365-2.36c0.278,0.14,0.567,0.267,0.851,0.399
		c0.094,0.044,0.187,0.089,0.281,0.132C17.215,52.396,17.341,52.462,17.475,52.52z M18.344,50.701
		c-0.125-0.054-0.251-0.106-0.375-0.161C9.356,46.644,3.5,38.55,3.5,29.5c0-9.06,5.867-17.161,14.494-21.053
		c0.143-0.064,0.29-0.121,0.435-0.182c1.907-0.821,3.937-1.448,6.071-1.826v5.109c-9.316,2.007-16,9.429-16,17.952
		s6.684,15.946,16,17.952v5.109C22.335,52.178,20.275,51.54,18.344,50.701z M32.5,55.964c0,0.571-0.465,1.036-1.036,1.036h-3.928
		c-0.571,0-1.036-0.465-1.036-1.036v-1.09v-7.032V11.158V4.126v-1.09C26.5,2.465,26.965,2,27.536,2h3.928
		C32.035,2,32.5,2.465,32.5,3.036v1.09v7.032v36.684v7.032V55.964z M34.5,47.452c9.316-2.007,16-9.429,16-17.952
		s-6.684-15.946-16-17.952v-5.11c2.134,0.378,4.164,1.005,6.071,1.826c0.144,0.062,0.292,0.118,0.435,0.182
		C49.633,12.339,55.5,20.44,55.5,29.5c0,9.05-5.856,17.144-14.468,21.04c-0.124,0.056-0.25,0.107-0.375,0.161
		c-1.931,0.839-3.991,1.476-6.156,1.86L34.5,47.452L34.5,47.452z M49.014,56.216c-0.052,0.009-5.01,0.651-7.486-3.696
		c0.132-0.057,0.258-0.123,0.389-0.182c0.095-0.043,0.188-0.088,0.283-0.133c0.284-0.132,0.573-0.258,0.85-0.398
		c0.731,1.104,2.257,2.14,5.365,2.36c0.399,0.028,0.775,0.226,1.032,0.541c0.222,0.272,0.32,0.598,0.277,0.917
		C49.688,55.896,49.609,56.128,49.014,56.216z"/>
</g>
<g>
</g>
<g>
</g>
<g>
</g>
<g>
</g>
<g>
</g>
<g>
</g>
<g>
</g>
<g>
</g>
<g>
</g>
<g>
</g>
<g>
</g>
<g>
</g>
<g>
</g>
<g>
</g>
<g>
</g>
</svg>
